<?xml version="1.0" standalone="no"?><!DOCTYPE svg PUBLIC "-//W3C//DTD SVG 1.1//EN" "http://www.w3.org/Graphics/SVG/1.1/DTD/svg11.dtd"><svg t="1726282530893" class="icon" viewBox="0 0 1024 1024" version="1.1" xmlns="http://www.w3.org/2000/svg" p-id="8824" xmlns:xlink="http://www.w3.org/1999/xlink" width="200" height="200"><path d="M515.2256 508.8768m-460.8 0a460.8 460.8 0 1 0 921.6 0 460.8 460.8 0 1 0-921.6 0Z" fill="#434341" p-id="8825"></path><path d="M803.1744 312.8832h-72.8064v-51.2a25.2416 25.2416 0 0 0-25.6-24.9856H334.336a25.2416 25.2416 0 0 0-25.6 24.9856v51.2h-66.56a26.1632 26.1632 0 0 0-26.4192 25.9072v90.8288c0 27.2384 10.24 87.3472 98.6112 101.8368a209.4592 209.4592 0 0 0 179.2 157.2352v50.6368H380.6208a25.9072 25.9072 0 1 0 0 51.8144h283.8016a25.9072 25.9072 0 1 0 0-51.8144h-117.76v-50.7904A209.3568 209.3568 0 0 0 724.3776 532.48C818.688 519.8848 829.44 457.5232 829.44 429.6192V338.7904a26.1632 26.1632 0 0 0-26.2656-25.9072zM268.8 429.6192V364.6976h40.0384v112.64c-39.9872-11.4176-40.0384-36.7104-40.0384-47.7184z m358.4 0l-44.7488 42.8032a6.656 6.656 0 0 0-1.9968 5.9392l10.5984 60.4672a6.8608 6.8608 0 0 1-10.24 7.0656l-55.3472-28.5184a7.0656 7.0656 0 0 0-6.4 0l-55.1936 28.7744a6.8096 6.8096 0 0 1-9.9328-7.0656l10.5472-60.4672a6.6048 6.6048 0 0 0-1.9456-5.9392L417.7408 430.08a6.7072 6.7072 0 0 1 3.7888-11.4688L483.4304 409.6a6.7584 6.7584 0 0 0 5.12-3.6864l27.6992-54.9888a6.912 6.912 0 0 1 12.288 0l27.6992 54.9888a6.7584 6.7584 0 0 0 5.12 3.6864l61.9008 8.8064a6.656 6.656 0 0 1 3.84 11.6736z m149.6576 0c0 11.52 0 39.0144-46.3872 49.3056V364.6976h46.3872z" fill="#FBD180" p-id="8826"></path></svg>